<?xml version="1.0" encoding="utf-8"?>
<!-- Generator: Adobe Illustrator 21.1.0, SVG Export Plug-In . SVG Version: 6.00 Build 0)  -->
<svg version="1.1" id="Layer_1" xmlns="http://www.w3.org/2000/svg" xmlns:xlink="http://www.w3.org/1999/xlink" x="0px" y="0px"
	 viewBox="0 0 200 200" style="enable-background:new 0 0 200 200;" xml:space="preserve">
<style type="text/css">
	.st0{fill:#F25F90;}
</style>
<title>icons_animals_5</title>
<g>
	<path class="st0" d="M114.7,65.8c-17.3-7.5-35.1,0.8-38,2.3c-3.4,0.4-6.9,1.8-9.6,3.8c-9.6,6.7-23.3,18.9-22.2,24.9
		c0.3,1.6,1.9,2.9,5.1,4.1c6.7,2.5,13.8,3.7,21.1,3.7c2.1,0,4.2-0.1,6.3-0.4c1.5,1.9,5.5,5.5,14.8,6.2L70.5,144h27v50.7h12.1v-4
		h-8.1V144h29.6l4.7,8.2l3.4-1.9l-5.8-10.3h-31.9v-29.7c21.9-3,27-12.2,28-15.1c5.3-3.3,8.6-7.4,9.6-12.1
		c2.1-9.5-4.9-19.6-11.7-29.5c-3-4-5.6-8.4-8-12.7c-2.9-5.8-3.4-12.5-1.8-18.6c2.6,6.9,10.1,10.3,17,7.8c1.9-0.7,3.7-1.9,5.1-3.4
		c3.6-0.1,5.6,3.2,7.7,7.1c1.2,2.3,2.2,4.2,4.1,4.2l0,0c1.4-0.1,2.5-1,3-2.3l0.1-0.5c1.4-7.5,0.3-13.4-3.2-17.4
		c-2.3-2.7-5.8-4.5-9.3-4.9c-2.7-6.7-10.4-10-17.1-7.3c-2.7,1.1-4.9,3-6.4,5.6c-6.7,9.2-7.7,21.4-2.7,31.7c2.5,4.7,5.2,9,8.2,13.3
		c6.3,9,12.7,18.6,11.1,26.3c-0.8,3-2.6,5.8-5.1,7.7C130.6,79.4,124.4,69.8,114.7,65.8z M148.5,20.2c2.3,2.7,3.2,6.7,2.6,11.9
		l-0.1-0.3c-1.6-3.2-4.1-8-8.8-9c0.7-1.6,1.1-3.4,1.1-5.2c0-0.3,0-0.5,0-0.7C145.2,17.4,147.1,18.5,148.5,20.2z M130,8.4
		c5.1,0,9.3,4.1,9.3,9.3S135.2,27,130,27c-5.1,0-9.3-4.1-9.3-9.3l0,0C120.7,12.5,124.9,8.4,130,8.4L130,8.4z M77.8,140l19.1-29.3
		h0.7V140H77.8z M125.9,93.5c0,0-2.3,9.9-25.4,12.9c-10.8,1-16-1.4-18.5-3.2c1.8-0.5,3.4-1.4,4.9-2.3c11.4-8.1,9.2-16.2,9-16.4
		l-3.8,1.1c0,0.3,1.4,5.8-7.5,12.2C77.4,103,60.9,100.6,53,98c8.8-1.1,24.5-3.7,30.2-10.3l-3-2.6c-4.9,5.8-21.9,8.5-30.7,9.3
		c1.9-3.6,8.6-11.2,20-19.2c10.7-7.5,18.6,0.7,18.9,1l1.5-1.4l1.5-1.4c-1.9-1.9-4.2-3.3-6.7-4.2c6.7-2.2,17.8-4.4,28.5,0.1
		C129.2,76.5,126,92.8,125.9,93.5z"/>
	<circle cx="131.1" cy="17.6" r="3"/>
</g>
<g>
	<path class="st0" d="M255.9,92.4c-6.6,0-11.9,5.3-11.9,11.9l0,0c0,1,0.4,2,1.2,2.8c1.5,1.5,4.1,1.5,5.6,0c0.8-0.8,1.2-1.8,1.2-2.8
		l0,0c0-2.2,1.8-4,4-4l0,0c1,0,2-0.4,2.8-1.2c1.5-1.6,1.5-4.1,0-5.6C257.9,92.8,256.9,92.4,255.9,92.4z"/>
	<path d="M409.9,83.5L392,40.1l0,0c-0.6-1.4-2-2.5-3.7-2.5c-0.8,0-1.6,0.2-2.2,0.7l0,0l0,0c0,0,0,0,0,0l-11.9,7.9v0
		c-1.1,0.7-1.8,1.9-1.8,3.3c0,2.2,1.8,4,4,4c0.8,0,1.6-0.2,2.2-0.7h0l0,0c0,0,0,0,0,0l7.9-5.2l12.7,30.9c-1.9-0.4-3.8-0.6-5.8-0.6
		c-7.5,0-14.2,3.1-19,8c-4.8-4.9-11.6-8-19-8c-14.7,0-26.6,11.9-26.6,26.7c0,2.9,0.4,5.8,1.2,8.6h-10.3c0.7-2.8,1.2-5.7,1.2-8.6
		c0-14.7-11.9-26.7-26.6-26.7c-7.5,0-14.2,3.1-19,8c-4.8-4.9-11.6-8-19-8c-2,0-3.9,0.2-5.8,0.6L263,47.6l7.9,5.2c0,0,0,0,0,0l0,0
		l0,0c0.6,0.4,1.4,0.7,2.2,0.7c2.2,0,4-1.8,4-4c0-1.4-0.7-2.6-1.8-3.3v0l-11.9-7.9c0,0,0,0,0,0l0,0l0,0c-0.6-0.4-1.4-0.7-2.2-0.7
		c-1.7,0-3.1,1-3.7,2.5l0,0l-17.9,43.5c-6.2,4.9-10.2,12.5-10.2,21c0,30.5,45.7,57.1,45.7,57.1s30.2-17.6,41.5-40.6h16.3
		c11.3,23,41.5,40.6,41.5,40.6s45.7-26.7,45.7-57.1C420.1,96,416.1,88.4,409.9,83.5z M292.7,138.4c-6.7,6.2-13.5,11-17.7,13.8
		c-4.2-2.7-11-7.6-17.7-13.8c-9.2-8.4-20.1-21.2-20.1-33.9c0-10.3,8.4-18.7,18.7-18.7c5.1,0,9.8,2,13.4,5.6l5.7,5.8l5.7-5.8
		c3.5-3.6,8.3-5.6,13.4-5.6c10.3,0,18.7,8.4,18.7,18.7C312.8,117.3,301.9,130,292.7,138.4z M392.1,138.4c-6.7,6.2-13.5,11-17.7,13.8
		c-4.2-2.7-11-7.6-17.7-13.8c-9.2-8.4-20.1-21.2-20.1-33.9c0-10.3,8.4-18.7,18.7-18.7c5.1,0,9.8,2,13.4,5.6l5.7,5.8l5.7-5.8
		c3.5-3.6,8.3-5.6,13.4-5.6c10.3,0,18.7,8.4,18.7,18.7C412.1,117.3,401.2,130,392.1,138.4z"/>
	<path class="st0" d="M355.2,92.4c-6.6,0-11.9,5.3-11.9,11.9l0,0c0,1,0.4,2,1.2,2.8c1.5,1.5,4.1,1.5,5.6,0c0.8-0.8,1.2-1.8,1.2-2.8
		l0,0c0-2.2,1.8-4,4-4l0,0c1,0,2-0.4,2.8-1.2c1.6-1.6,1.6-4.1,0-5.6C357.3,92.8,356.2,92.4,355.2,92.4z"/>
</g>
<g>
	<g>
		<g>
			<path class="st0" d="M553.6,144.9c49.8,0,90.8-44.7,92.5-46.6l-9.2-8.3c-0.4,0.4-39,42.5-83.3,42.5c-47,0-83.6-43.7-83.9-44.1
				l-9.6,7.9C461.7,98.2,500.7,144.9,553.6,144.9z"/>
			<path d="M485.6,134.8c16.3,11.2,41.4,24.5,68.3,24.5c25.4,0,50.1-12.7,66.3-23.4c17.5-11.5,28.8-22.8,29.3-23.3l-4.4-4.4
				c-0.4,0.5-45.4,44.9-91.2,44.9c-48.6,0-92.5-46.4-92.9-46.9l-4.5,4.2C456.9,110.9,468,122.8,485.6,134.8z"/>
			<path class="st0" d="M553.8,165.7c-49.6,0-93.9-44-94.3-44.5l-1.5,1.5c0.4,0.4,45.4,45.1,95.8,45.1c47.5,0,93.7-42.6,94.2-43
				l-1.4-1.5C646.1,123.7,600.5,165.7,553.8,165.7z"/>
		</g>
	</g>
	<g>
		<path d="M553.8,61.4c-9.7,0-17.6,7.9-17.6,17.6s7.9,17.6,17.6,17.6s17.6-7.9,17.6-17.6C571.4,69.3,563.5,61.4,553.8,61.4z
			 M553.8,94.5c-8.5,0-15.5-7-15.5-15.5s7-15.5,15.5-15.5s15.5,7,15.5,15.5S562.3,94.5,553.8,94.5z"/>
		<path class="st0" d="M637.4,75c-1.5-1.8-37.7-43.5-83.6-43.5S471.7,73.2,470.2,75l-3.4,4l3.4,4c1.5,1.8,37.7,43.5,83.6,43.5
			s82.1-41.8,83.6-43.5l3.4-4L637.4,75z M483.4,79c9-9.1,33.2-30.8,61.9-34.6c-15.6,3.8-27.2,17.9-27.2,34.6s11.6,30.8,27.2,34.6
			C516.7,109.8,492.5,88.1,483.4,79z M529.5,79c0-13.4,10.9-24.3,24.3-24.3s24.3,10.9,24.3,24.3s-10.9,24.3-24.3,24.3
			S529.5,92.4,529.5,79z M562.2,113.6c15.6-3.8,27.2-17.9,27.2-34.6s-11.6-30.8-27.2-34.6c28.7,3.8,52.9,25.5,61.9,34.6
			C615.1,88.1,590.9,109.8,562.2,113.6z"/>
	</g>
</g>
<g>
	<g>
		<path d="M836.9,8.3c-2.3-0.8-4.9-1.3-7.2-1.3c-9.1,0-17.1,5.7-20,14.1l-22.2,61.2c-1.3,0-2.5-0.2-3.8-0.2h-16.9
			c-1.3,0-2.5,0-3.8,0.2l-22.2-61.2c-3.2-8.4-11.2-14.1-20-14.1c-2.5,0-5.1,0.4-7.4,1.3c-11.2,4-16.9,16.5-12.9,27.4l23.8,66
			c-8,9.5-12.9,21.9-12.9,35.4c0,30.4,24.7,55.1,55.1,55.1h16.9c30.4,0,55.1-24.7,55.1-55.1c0-13.5-4.9-25.7-12.9-35.4l24.1-66
			C853.8,24.7,848.1,12.3,836.9,8.3z M757.8,82.7c-1.7,0.2-3.2,0.6-4.6,1.1l-21.9-59.9c-1.7-4.6-6.1-7.6-11-7.6
			c-1.3,0-2.7,0.2-4,0.6c-2.7,1.1-5.1,3.2-6.5,5.9c-1.3,2.7-1.5,5.9-0.4,8.9l22.8,62.4c-1.3,1.1-2.5,2.1-3.8,3.4L705.1,34
			c-3-8.4,1.5-17.9,9.9-20.9c1.9-0.6,3.6-1.1,5.7-1.1c6.8,0,13.1,4.4,15.4,10.8 M748.3,85.3c-4.2,1.5-8.2,3.4-11.8,5.9L714.3,30
			c-0.6-1.7-0.4-3.4,0.2-5.1c0.6-1.7,2.1-2.7,3.8-3.4c0.6-0.2,1.5-0.4,2.3-0.4c2.7,0,5.3,1.7,6.1,4.2L748.3,85.3z M783.5,187.2
			h-16.9c-27.6,0-50-22.4-50-50c0-11.4,3.8-21.7,10.1-30.2c0.6-0.6,1.1-1.5,1.7-2.1l0,0c0.6-0.6,1.3-1.3,1.9-1.9l0,0
			c1.3-1.3,2.3-2.3,3.6-3.6c1.3-1.1,2.7-2.3,4.2-3.2l0,0c3.6-2.5,7.6-4.6,11.8-6.1c0.8-0.2,1.5-0.6,2.3-0.8l0,0
			c0.8-0.2,1.7-0.4,2.5-0.6l0,0c1.5-0.4,3.2-0.6,4.6-0.8c0.8-0.2,1.7-0.2,2.5-0.2l0,0c0.8,0,1.7-0.2,2.5-0.2c0.6,0,1.3,0,1.9,0h16.9
			c0.6,0,1.3,0,1.9,0c0.8,0,1.7,0,2.5,0.2l0,0c0.8,0,1.7,0.2,2.5,0.2c1.7,0.2,3.2,0.6,4.6,0.8l0,0c0.8,0.2,1.7,0.4,2.5,0.6l0,0
			c0.8,0.2,1.7,0.4,2.3,0.8c4.2,1.5,8.2,3.6,11.8,6.1l0,0c1.5,1.1,3,2.1,4.2,3.2s2.5,2.3,3.6,3.6l0,0c0.6,0.6,1.3,1.3,1.7,1.9l0,0
			c0.6,0.6,1.1,1.5,1.7,2.1c6.3,8.4,10.1,18.8,10.1,30.2C833.5,164.8,811.2,187.2,783.5,187.2z M801.9,85.3l21.7-59.7
			c0.8-2.5,3.4-4.2,6.1-4.2c0.8,0,1.5,0.2,2.3,0.4c1.7,0.6,3,1.9,3.8,3.4s0.8,3.4,0.2,5.1l-22.2,61.2
			C810.1,88.6,806.1,86.7,801.9,85.3z M844.9,34l-23.2,63.5c-1.3-1.3-2.5-2.3-3.8-3.4l22.8-62.4c1.1-3,0.8-6.1-0.4-8.9
			c-1.3-2.7-3.6-4.9-6.5-5.9c-1.3-0.4-2.5-0.6-4-0.6c-4.9,0-9.3,3.2-11,7.6L797,83.8c-1.5-0.4-3.2-0.6-4.6-1.1l21.9-59.9
			c2.3-6.5,8.4-10.8,15.4-10.8c1.9,0,3.8,0.4,5.7,1.1C843.7,16.1,848.1,25.6,844.9,34z"/>
		<circle class="st0" cx="744.1" cy="130.8" r="4.6"/>
		<circle class="st0" cx="806.1" cy="130.8" r="4.6"/>
		<path d="M786.5,153.8c-4.6,0-8.6-3.4-9.5-7.8c1.5-0.6,3.6-1.7,3.6-1.7c0.8-0.2,1.5-1.1,1.5-1.9c0-1.1-0.8-2.1-2.1-2.1h-9.7
			c-1.1,0-2.1,0.8-2.1,2.1c0,0.8,0.6,1.7,1.5,1.9c0.2,0,2.1,1.1,3.6,1.7c-0.8,4.4-4.9,7.8-9.5,7.8c-0.6,0-1.3,0.6-1.3,1.3
			c0,0.6,0.6,1.3,1.3,1.3c5.1,0,9.5-3.2,11.4-7.6c1.9,4.4,6.3,7.6,11.4,7.6c0.6,0,1.3-0.6,1.3-1.3
			C787.8,154.5,787.3,153.8,786.5,153.8z"/>
	</g>
</g>
</svg>
